<?xml version="1.0" encoding="utf-8"?>
<!-- Generator: Adobe Illustrator 25.0.0, SVG Export Plug-In . SVG Version: 6.00 Build 0)  -->
<svg version="1.1" id="Layer_1" xmlns="http://www.w3.org/2000/svg" xmlns:xlink="http://www.w3.org/1999/xlink" x="0px" y="0px"
	 viewBox="0 0 100 25" enable-background="new 0 0 100 25" xml:space="preserve">
<g>
	<path fill="#1D1D1B" d="M3.32,5.21h7.38c1.64,0.6,2.46,1.75,2.46,3.44v3.23c0,1.1-0.27,1.9-0.82,2.41
		c-0.57,0.79-1.56,1.18-2.97,1.18h-2.1c-0.21,0-0.31,0.1-0.31,0.31v4.56c-0.07,0.17-0.19,0.26-0.36,0.26H3.53
		c-0.24,0-0.36-0.14-0.36-0.41V5.36L3.32,5.21z M6.96,8.49v3.79l0.21,0.21h1.49c0.39,0.05,0.66-0.13,0.82-0.56V9.87L9.53,8.9
		C9.47,8.43,9.2,8.19,8.71,8.18H7.27C7.07,8.18,6.96,8.29,6.96,8.49z"/>
	<path fill="#1D1D1B" d="M14.91,5.21h3.79c0.24,0,0.36,0.22,0.36,0.67v7.18v3.74c0.03,0.48,0.27,0.72,0.72,0.72h5.33
		c0.38,0,0.56,0.15,0.56,0.46v2.46l-0.15,0.15h-7.59c-0.75-0.09-1.57-0.53-2.46-1.33c-0.51-0.76-0.77-1.46-0.77-2.1V5.67
		C14.71,5.41,14.77,5.26,14.91,5.21z"/>
	<path fill="#1D1D1B" d="M27.57,5.21h3.18c0.14,0.05,0.21,0.2,0.21,0.46L30.91,16.8c0.18,0.55,0.47,0.82,0.87,0.82h1.03
		c0.25,0,0.51-0.21,0.77-0.62V5.67c0-0.26,0.07-0.41,0.21-0.46h3.18c0.24,0,0.36,0.14,0.36,0.41V17.1c0,1.27-0.6,2.3-1.79,3.08
		l-1.18,0.41h-4.2c-1.13-0.32-1.92-0.83-2.36-1.54c-0.16,0-0.33-0.62-0.51-1.85L27.22,5.57C27.26,5.33,27.38,5.21,27.57,5.21z"/>
	<path fill="#1D1D1B" d="M39.32,5.21h4.97c0.16,0.12,0.4,1.07,0.72,2.87l1.49,7.84h0.26c0.07,0,0.62-2.8,1.64-8.41
		c0.25-1.54,0.43-2.31,0.56-2.31h5.49l0.15,0.15v14.2c0.03,0.75-0.08,1.09-0.31,1.03h-2.87c-0.24,0-0.36-0.27-0.36-0.82v-9.64
		l-0.14-0.21H50.7c-0.16,0-0.92,3.52-2.26,10.56l-0.15,0.1h-3.23c-0.16,0-0.92-3.5-2.26-10.51L42.6,9.9
		c-0.23,0.01-0.35,0.09-0.36,0.24v9.9c0.01,0.39-0.07,0.58-0.26,0.56h-2.92c-0.14-0.05-0.21-0.2-0.21-0.46V5.67
		C38.9,5.36,39.05,5.21,39.32,5.21z"/>
	<path fill="#1D1D1B" d="M56.48,5.21h6.56c0.68,0.11,1.34,0.47,2,1.08c0.51,0.64,0.8,1.37,0.87,2.2v1.59c0,0.54-0.24,1.14-0.72,1.79
		c-0.34,0.26-0.51,0.48-0.51,0.67c0.99,0.68,1.49,1.37,1.49,2.05c0.07,0,0.1,0.17,0.1,0.51v2c0,1.02-0.48,1.96-1.44,2.82
		c-0.45,0.29-0.98,0.51-1.59,0.67h-6.87c-0.14-0.05-0.21-0.2-0.21-0.46V5.62C56.17,5.35,56.27,5.21,56.48,5.21z M59.76,8.23v3.13
		l0.1,0.1h1.95c0.25-0.1,0.44-0.27,0.56-0.51v-2.1c-0.05-0.48-0.29-0.72-0.72-0.72h-1.79L59.76,8.23z M59.76,14.13v3.49l0.36,0.05
		h1.44c0.65,0,0.97-0.27,0.97-0.82V15.1c0-0.72-0.27-1.08-0.82-1.08h-1.85L59.76,14.13z"/>
	<path fill="#1D1D1B" d="M68.02,5.21h3.28c0.14,0.05,0.21,0.2,0.21,0.46v14.77l-0.15,0.15h-3.33c-0.14-0.05-0.21-0.2-0.21-0.46V5.67
		C67.81,5.41,67.88,5.26,68.02,5.21z"/>
	<path fill="#1D1D1B" d="M73.19,5.21h4.92c0.19,0.15,0.65,1.38,1.38,3.69l1.69,5.02h0.15l-0.01-8.32c0.06-0.27,0.13-0.4,0.21-0.4
		h3.49l0.15,0.15v15.07l-0.15,0.15h-4.77c-0.22,0-0.37-0.24-0.46-0.72l-2.72-8.05h-0.15v0.46v7.9c0,0.27-0.1,0.41-0.31,0.41h-3.43
		l-0.15-0.15V5.36L73.19,5.21z"/>
	<path fill="#1D1D1B" d="M89.24,5.21h6.92l0.15,0.15v2.41c0,0.27-0.17,0.41-0.51,0.41h-4.51c-0.44,0-0.72,0.22-0.82,0.67v8.1
		c0.17,0.29,0.34,0.47,0.51,0.56h1.79c0.21,0,0.31-0.1,0.31-0.31v-5.02c0-0.06,0.1-0.15,0.31-0.26l0.05,0.05h2.97
		c0.27,0,0.41,0.14,0.41,0.41v7.74c0,0.26-0.07,0.41-0.21,0.46h-6.77c-1.24-0.3-2.1-0.83-2.56-1.59c-0.38-0.68-0.56-1.23-0.56-1.64
		V8.29c0-0.67,0.38-1.44,1.13-2.31C88.51,5.52,88.97,5.26,89.24,5.21z"/>
</g>
<g>
</g>
<g>
</g>
<g>
</g>
<g>
</g>
<g>
</g>
<g>
</g>
</svg>
